<svg width="18" height="18" viewBox="0 0 18 18" fill="none" xmlns="http://www.w3.org/2000/svg">
<path d="M16.5001 12.6891V14.9391C16.5009 15.148 16.4581 15.3547 16.3745 15.5461C16.2908 15.7375 16.168 15.9093 16.0141 16.0505C15.8602 16.1917 15.6785 16.2992 15.4806 16.3661C15.2828 16.433 15.0731 16.4579 14.8651 16.4391C12.5572 16.1883 10.3403 15.3997 8.39257 14.1366C6.58044 12.9851 5.04407 11.4487 3.89257 9.6366C2.62506 7.68 1.83625 5.45234 1.59007 3.1341C1.57133 2.9267 1.59598 2.71767 1.66245 2.52031C1.72892 2.32296 1.83575 2.14161 1.97615 1.98781C2.11654 1.83401 2.28743 1.71113 2.47792 1.62699C2.6684 1.54285 2.87433 1.49929 3.08257 1.4991H5.33257C5.69655 1.49551 6.04942 1.62441 6.32539 1.86175C6.60137 2.09909 6.78163 2.42868 6.83257 2.7891C6.92754 3.50915 7.10366 4.21614 7.35757 4.8966C7.45848 5.16504 7.48032 5.45678 7.4205 5.73726C7.36069 6.01773 7.22172 6.27518 7.02007 6.4791L6.06757 7.4316C7.13524 9.30926 8.68991 10.8639 10.5676 11.9316L11.5201 10.9791C11.724 10.7774 11.9814 10.6385 12.2619 10.5787C12.5424 10.5188 12.8341 10.5407 13.1026 10.6416C13.783 10.8955 14.49 11.0716 15.2101 11.1666C15.5744 11.218 15.9071 11.4015 16.145 11.6822C16.3828 11.9629 16.5092 12.3213 16.5001 12.6891Z" fill="#6D7885"/>
</svg>
