<?xml version="1.0" encoding="UTF-8"?>
<svg version="1.1" xmlns="http://www.w3.org/2000/svg" width="18" height="18">
<path d="M0 0 C1.010625 0.0825 2.02125 0.165 3.0625 0.25 C5.0625 3.25 5.0625 3.25 4.75 5.8125 C4.0625 8.25 4.0625 8.25 3.0625 10.25 C4.0525 10.58 5.0425 10.91 6.0625 11.25 C6.75 13.3125 6.75 13.3125 7.0625 15.25 C6.0725 15.25 5.0825 15.25 4.0625 15.25 C3.588125 14.734375 3.11375 14.21875 2.625 13.6875 C2.109375 13.213125 1.59375 12.73875 1.0625 12.25 C-1.07553054 12.32606836 -1.07553054 12.32606836 -2.9375 13.25 C-3.2675 13.91 -3.5975 14.57 -3.9375 15.25 C-0.3075 15.58 3.3225 15.91 7.0625 16.25 C7.0625 16.91 7.0625 17.57 7.0625 18.25 C2.4425 18.25 -2.1775 18.25 -6.9375 18.25 C-6.6075 15.94 -6.2775 13.63 -5.9375 11.25 C-4.6175 10.92 -3.2975 10.59 -1.9375 10.25 C-1.9375 9.59 -1.9375 8.93 -1.9375 8.25 C-2.9275 7.92 -3.9175 7.59 -4.9375 7.25 C-3.90723865 0.33253095 -3.90723865 0.33253095 0 0 Z M-2.9375 3.25 C-2.6075 4.57 -2.2775 5.89 -1.9375 7.25 C0.04741642 6.98323796 0.04741642 6.98323796 2.0625 6.25 C2.3925 5.26 2.7225 4.27 3.0625 3.25 C0.01336772 2.23888907 0.01336772 2.23888907 -2.9375 3.25 Z " fill="#575F6A" transform="translate(8.9375,-0.25)"/>
<path d="M0 0 C3 -0.375 3 -0.375 6 0 C8 3 8 3 7.6875 5.5625 C7 8 7 8 6 10 C5.34 9.67 4.68 9.34 4 9 C4.50603992 6.83125748 4.99983813 5.00032373 6 3 C4.02 3 2.04 3 0 3 C0.33 3.99 0.66 4.98 1 6 C0.34 6.66 -0.32 7.32 -1 8 C-1.625 5.6875 -1.625 5.6875 -2 3 C-1.34 2.01 -0.68 1.02 0 0 Z " fill="#495059" transform="translate(6,0)"/>
<path d="M0 0 C4.29 0.33 8.58 0.66 13 1 C13 1.66 13 2.32 13 3 C8.38 3 3.76 3 -1 3 C-0.67 2.01 -0.34 1.02 0 0 Z " fill="#606A77" transform="translate(3,15)"/>
</svg>
