<?xml version="1.0" encoding="UTF-8"?>
<svg version="1.1" xmlns="http://www.w3.org/2000/svg" width="18" height="18">
<path d="M0 0 C1.65 0 3.3 0 5 0 C5 2.31 5 4.62 5 7 C5.66 7 6.32 7 7 7 C7 4.69 7 2.38 7 0 C8.65 0 10.3 0 12 0 C13.20465156 4.65798604 14.28547412 9.23649415 15 14 C14.34 14 13.68 14 13 14 C12.67 13.01 12.34 12.02 12 11 C7.71 10.67 3.42 10.34 -1 10 C-1 11.98 -1 13.96 -1 16 C0.32 16 1.64 16 3 16 C2.67 14.68 2.34 13.36 2 12 C4.64 12 7.28 12 10 12 C9.67 13.32 9.34 14.64 9 16 C10.98 16 12.96 16 15 16 C15 16.66 15 17.32 15 18 C9.06 18 3.12 18 -3 18 C-3 9 -3 9 -1 6 C-0.60986284 4.0103005 -0.26797351 2.00980131 0 0 Z M2 5 C1.67 5.99 1.34 6.98 1 8 C1.99 7.67 2.98 7.34 4 7 C3.34 6.34 2.68 5.68 2 5 Z M9 5 C8.67 5.99 8.34 6.98 8 8 C8.99 8 9.98 8 11 8 C10.67 7.01 10.34 6.02 10 5 C9.67 5 9.34 5 9 5 Z M5 14 C5 14.66 5 15.32 5 16 C5.66 16 6.32 16 7 16 C7 15.34 7 14.68 7 14 C6.34 14 5.68 14 5 14 Z " fill="#535B65" transform="translate(3,0)"/>
<path d="M0 0 C0.33 0 0.66 0 1 0 C1 1.98 1 3.96 1 6 C2.32 6 3.64 6 5 6 C4.67 4.68 4.34 3.36 4 2 C6.64 2 9.28 2 12 2 C11.67 3.32 11.34 4.64 11 6 C12.98 6 14.96 6 17 6 C17 6.66 17 7.32 17 8 C11.06 8 5.12 8 -1 8 C-0.67 5.36 -0.34 2.72 0 0 Z M7 4 C7 4.66 7 5.32 7 6 C7.66 6 8.32 6 9 6 C9 5.34 9 4.68 9 4 C8.34 4 7.68 4 7 4 Z " fill="#6E7987" transform="translate(1,10)"/>
<path d="M0 0 C1.65 0 3.3 0 5 0 C5 2.64 5 5.28 5 8 C4.01 7.34 3.02 6.68 2 6 C1.34 6 0.68 6 0 6 C0 4.02 0 2.04 0 0 Z M0 8 C4 9 4 9 4 9 Z " fill="#6A7581" transform="translate(10,0)"/>
<path d="M0 0 C1.65 0 3.3 0 5 0 C5.33 2.97 5.66 5.94 6 9 C4.68 8.67 3.36 8.34 2 8 C2.33 7.01 2.66 6.02 3 5 C2.01 5 1.02 5 0 5 C0 3.35 0 1.7 0 0 Z " fill="#6C7784" transform="translate(3,0)"/>
</svg>
