<?xml version="1.0" encoding="UTF-8"?>
<svg version="1.1" xmlns="http://www.w3.org/2000/svg" width="18" height="18">
<path d="M0 0 C2.31243792 -0.02685412 4.6249627 -0.04632841 6.9375 -0.0625 C8.22527344 -0.07410156 9.51304688 -0.08570313 10.83984375 -0.09765625 C14 -0 14 -0 15 1 C15.07244053 3.01964199 15.08377188 5.04167124 15.0625 7.0625 C15.05347656 8.16722656 15.04445313 9.27195312 15.03515625 10.41015625 C15.02355469 11.26480469 15.01195312 12.11945312 15 13 C14.34 13 13.68 13 13 13 C13 10.36 13 7.72 13 5 C11.35 5.33 9.7 5.66 8 6 C7.67 5.34 7.34 4.68 7 4 C5.02 4.99 5.02 4.99 3 6 C3 8.97 3 11.94 3 15 C4.62490954 15.02698189 6.24994633 15.04638757 7.875 15.0625 C8.77992187 15.07410156 9.68484375 15.08570313 10.6171875 15.09765625 C13.0168585 15.16249257 13.0168585 15.16249257 15 14 C15 15.32 15 16.64 15 18 C12.68756208 18.02685412 10.3750373 18.04632841 8.0625 18.0625 C6.77472656 18.07410156 5.48695312 18.08570312 4.16015625 18.09765625 C1 18 1 18 0 17 C-0.07325168 14.13732433 -0.09238205 11.299281 -0.0625 8.4375 C-0.05798828 7.63119141 -0.05347656 6.82488281 -0.04882812 5.99414062 C-0.03700518 3.99606244 -0.01906914 1.99802217 0 0 Z " fill="#626D78" transform="translate(0,0)"/>
<path d="M0 0 C1.32 0.99 2.64 1.98 4 3 C3.01 3 2.02 3 1 3 C1.33 6.96 1.66 10.92 2 15 C8.67405852 15.4872787 8.67405852 15.4872787 15 14 C15 15.32 15 16.64 15 18 C12.68756208 18.02685412 10.3750373 18.04632841 8.0625 18.0625 C6.77472656 18.07410156 5.48695312 18.08570312 4.16015625 18.09765625 C1 18 1 18 0 17 C-0.07325168 14.13732433 -0.09238205 11.299281 -0.0625 8.4375 C-0.05798828 7.63119141 -0.05347656 6.82488281 -0.04882812 5.99414062 C-0.03700518 3.99606244 -0.01906914 1.99802217 0 0 Z " fill="#555F6A" transform="translate(0,0)"/>
<path d="M0 0 C1.32 0.66 2.64 1.32 4 2 C4 3.65 4 5.3 4 7 C0.25 8.125 0.25 8.125 -2 7 C-2.125 4.625 -2.125 4.625 -2 2 C-1.34 1.34 -0.68 0.68 0 0 Z M1 3 C1 6 1 6 1 6 Z " fill="#555E6A" transform="translate(7,7)"/>
<path d="M0 0 C1.32 0.33 2.64 0.66 4 1 C3.125 4.875 3.125 4.875 2 6 C1.76712992 7.68183948 1.58735834 9.3712416 1.4375 11.0625 C1.35371094 11.98160156 1.26992188 12.90070312 1.18359375 13.84765625 C1.12300781 14.55792969 1.06242188 15.26820312 1 16 C0.67 16 0.34 16 0 16 C0 10.66666667 0 5.33333333 0 0 Z " fill="#6E7986" transform="translate(1,0)"/>
<path d="M0 0 C1.32 0 2.64 0 4 0 C4.33 0.66 4.66 1.32 5 2 C6.32 2 7.64 2 9 2 C9 2.66 9 3.32 9 4 C7.68 4 6.36 4 5 4 C4.67 4.66 4.34 5.32 4 6 C0 1.125 0 1.125 0 0 Z " fill="#4F5961" transform="translate(4,0)"/>
</svg>
