<?xml version="1.0" encoding="UTF-8"?>
<svg version="1.1" xmlns="http://www.w3.org/2000/svg" width="18" height="18">
<path d="M0 0 C0.66 0 1.32 0 2 0 C1.67 2.64 1.34 5.28 1 8 C1.99 8.66 2.98 9.32 4 10 C3.814375 10.804375 3.62875 11.60875 3.4375 12.4375 C3.2209375 13.7059375 3.2209375 13.7059375 3 15 C3.33 15.33 3.66 15.66 4 16 C4 15.01 4 14.02 4 13 C4.66 13 5.32 13 6 13 C6.33 14.65 6.66 16.3 7 18 C1.06 18 -4.88 18 -11 18 C-8.80821918 10.32876712 -8.80821918 10.32876712 -4 7 C-3.67 6.34 -3.34 5.68 -3 5 C-2.34 5 -1.68 5 -1 5 C-0.67 3.35 -0.34 1.7 0 0 Z M-4.625 11.5 C-5.07875 11.995 -5.5325 12.49 -6 13 C-3.36 13 -0.72 13 2 13 C0.62514468 11.45833358 0.62514468 11.45833358 -1 10 C-3.12364481 9.77390663 -3.12364481 9.77390663 -4.625 11.5 Z " fill="#3F464E" transform="translate(11,0)"/>
<path d="M0 0 C0.66 0.33 1.32 0.66 2 1 C4.59248672 1.27175818 7.18448511 1.44572568 9.78515625 1.62109375 C10.51605469 1.74613281 11.24695313 1.87117187 12 2 C12.33 2.66 12.66 3.32 13 4 C13 3.01 13 2.02 13 1 C13.66 1 14.32 1 15 1 C15.33 2.65 15.66 4.3 16 6 C10.06 6 4.12 6 -2 6 C-1.34 4.02 -0.68 2.04 0 0 Z " fill="#616B78" transform="translate(2,12)"/>
<path d="M0 0 C0.99 0.33 1.98 0.66 3 1 C2.67 2.32 2.34 3.64 2 5 C1.34 5 0.68 5 0 5 C0 3.35 0 1.7 0 0 Z " fill="#586570" transform="translate(6,0)"/>
<path d="M0 0 C0.99 0.33 1.98 0.66 3 1 C2.67 2.32 2.34 3.64 2 5 C1.34 5 0.68 5 0 5 C0 3.35 0 1.7 0 0 Z " fill="#646F7B" transform="translate(14,3)"/>
<path d="M0 0 C0.66 0 1.32 0 2 0 C2 1.65 2 3.3 2 5 C1.34 5 0.68 5 0 5 C-0.33 4.01 -0.66 3.02 -1 2 C-0.67 1.34 -0.34 0.68 0 0 Z " fill="#65707C" transform="translate(2,3)"/>
</svg>
