<?xml version="1.0" encoding="UTF-8"?>
<svg version="1.1" xmlns="http://www.w3.org/2000/svg" width="18" height="18">
<path d="M0 0 C1.67403712 0.64793667 3.34227266 1.31140557 5 2 C4.88648483 3.81325551 4.75887039 5.62563357 4.625 7.4375 C4.55539063 8.44683594 4.48578125 9.45617187 4.4140625 10.49609375 C4.27742188 11.32238281 4.14078125 12.14867187 4 13 C3.01 13.495 3.01 13.495 2 14 C2 10.37 2 6.74 2 3 C-2.60542376 2.04086462 -2.60542376 2.04086462 -7.1875 2.625 C-9.26831564 3.89997124 -9.26831564 3.89997124 -9.609375 6.6015625 C-9.65578125 7.59929688 -9.7021875 8.59703125 -9.75 9.625 C-9.80671875 10.62789062 -9.8634375 11.63078125 -9.921875 12.6640625 C-9.94765625 13.43492188 -9.9734375 14.20578125 -10 15 C-9.34 15 -8.68 15 -8 15 C-8.185625 14.360625 -8.37125 13.72125 -8.5625 13.0625 C-8.706875 12.381875 -8.85125 11.70125 -9 11 C-8 10 -8 10 -4.5625 9.8125 C-1 10 -1 10 1 12 C0.67 12.99 0.34 13.98 0 15 C1.65 15 3.3 15 5 15 C5 15.66 5 16.32 5 17 C-0.94 17 -6.88 17 -13 17 C-13 12.05 -13 7.1 -13 2 C-6.9552884 -1.0223558 -6.08296943 -1.43779277 0 0 Z M-6 12 C-6 12.99 -6 13.98 -6 15 C-4.68 15 -3.36 15 -2 15 C-2 14.01 -2 13.02 -2 12 C-3.32 12 -4.64 12 -6 12 Z " fill="#67717D" transform="translate(13,1)"/>
<path d="M0 0 C3.5625 0.1875 3.5625 0.1875 5.5625 2.1875 C5.2325 3.1775 4.9025 4.1675 4.5625 5.1875 C6.2125 5.1875 7.8625 5.1875 9.5625 5.1875 C9.5625 5.8475 9.5625 6.5075 9.5625 7.1875 C4.9425 7.1875 0.3225 7.1875 -4.4375 7.1875 C-4.7675 6.5275 -5.0975 5.8675 -5.4375 5.1875 C-4.7775 5.1875 -4.1175 5.1875 -3.4375 5.1875 C-3.7159375 4.2284375 -3.7159375 4.2284375 -4 3.25 C-4.2165625 2.2290625 -4.2165625 2.2290625 -4.4375 1.1875 C-3.4375 0.1875 -3.4375 0.1875 0 0 Z M-1.4375 2.1875 C-1.4375 3.1775 -1.4375 4.1675 -1.4375 5.1875 C-0.1175 5.1875 1.2025 5.1875 2.5625 5.1875 C2.5625 4.1975 2.5625 3.2075 2.5625 2.1875 C1.2425 2.1875 -0.0775 2.1875 -1.4375 2.1875 Z " fill="#5A636E" transform="translate(8.4375,10.8125)"/>
<path d="M0 0 C0.33 0 0.66 0 1 0 C1.33 4.62 1.66 9.24 2 14 C0.68 14 -0.64 14 -2 14 C-1.85970581 11.8537974 -1.71261836 9.70803782 -1.5625 7.5625 C-1.48128906 6.36753906 -1.40007812 5.17257812 -1.31640625 3.94140625 C-1 1 -1 1 0 0 Z " fill="#6A7582" transform="translate(2,4)"/>
<path d="M0 0 C0.66 0.99 1.32 1.98 2 3 C-3.75 5 -3.75 5 -6 5 C-6 4.34 -6 3.68 -6 3 C-4.02 2.01 -2.04 1.02 0 0 Z " fill="#434A53" transform="translate(6,0)"/>
<path d="M0 0 C2.97 0 5.94 0 9 0 C8.67 0.66 8.34 1.32 8 2 C5.03 2 2.06 2 -1 2 C-0.67 1.34 -0.34 0.68 0 0 Z " fill="#5E6873" transform="translate(5,8)"/>
<path d="M0 0 C2.64 0 5.28 0 8 0 C8 0.66 8 1.32 8 2 C5.36 2 2.72 2 0 2 C0 1.34 0 0.68 0 0 Z " fill="#444A57" transform="translate(5,5)"/>
</svg>
